<?xml version="1.0" encoding="utf-8"?>
<!-- Generator: Adobe Illustrator 27.0.0, SVG Export Plug-In . SVG Version: 6.00 Build 0)  -->
<svg version="1.1" id="Layer_1" xmlns="http://www.w3.org/2000/svg" xmlns:xlink="http://www.w3.org/1999/xlink" x="0px" y="0px"
	 viewBox="0 0 2000 528" style="enable-background:new 0 0 2000 528;" xml:space="preserve">
<style type="text/css">
	.st0{fill:#000000;}
	.st1{fill:#EC1B24;}
	.st2{fill:#26AAE2;}
	.st3{fill:#A6CC39;}
	.st4{fill:#A61C22;}
	.st5{fill:#196E9A;}
	.st6{fill:#669A41;}
</style>
<g>
	<g>
		<path class="st0" d="M1382.1,260.5c-6,0-12-0.1-18,0.1c-2.9,0.1-4.8-0.9-5.8-3.5c-2.6-7.3-5.2-14.6-7.8-21.9
			c-4.1-11.3-8.4-22.6-12.5-34c-4-11-7.9-22.1-11.9-33.1c-4-10.9-8.5-21.5-12.1-32.5c-3.8-11.6-9.4-22.6-12-34.6
			c-0.3-1.5-0.5-3.1-2.4-3.2s-2.5,1.4-2.9,2.9c-4,16.6-10.9,32.2-16.8,48.2c-5.2,14.1-9.8,28.4-15.1,42.4
			c-4.1,10.8-8.1,21.6-12,32.5c-3.9,10.8-8.5,21.5-11.6,32.6c-0.8,3-2,4.4-5.4,4.4c-12.7-0.2-25.3-0.2-38,0c-2.8,0-4.4-1-5.3-3.4
			c-3.8-10.2-7.6-20.4-11.5-30.6c-4-10.3-8.1-20.5-12.1-30.8c-4.1-10.6-8-21.3-12.1-31.9c-2.8-7.2-5.7-14.4-8.5-21.6
			c-3-7.7-5.8-15.4-8.7-23.1c-2.7-6.9-5.4-13.8-8.1-20.7c-2.9-7.2-6-14.3-8.7-21.5c-1.6-4.2-0.3-5.8,4.2-5.8c5.3,0,10.7,0,16,0
			c8.8,0,8.8,0,11.7,8.1c6.5,17.8,13.4,35.5,20.5,53c5.4,13.3,9.9,26.9,15,40.3c5.1,13.2,10.9,26.2,15.5,39.6
			c2.8,8.1,7.6,15.5,8.5,24.2c0.2,1.6,0.9,3,2.8,2.8c2-0.1,1.9-1.7,2.3-3.2c1.5-5.8,3.1-11.5,5.7-17c3.1-6.7,5.2-13.9,7.8-20.9
			c2.9-7.9,5.7-15.8,8.6-23.7c3-8.4,6.1-16.7,9.2-25.1c2.7-7.3,5.5-14.5,8.3-21.8c3-8,5.9-16.1,9-24.1c3.7-9.8,7.4-19.5,11-29.2
			c0.6-1.7,1.9-2.1,3.5-2.1c11.5,0,23,0,34.5,0c1.6,0,2.9,0.3,3.5,2.1c3.6,10.1,7.2,20.2,10.9,30.3c4,10.8,8.2,21.6,12.3,32.4
			c4,10.7,7.8,21.4,11.7,32.1c4.1,11,8.2,22,12.3,33c2.9,7.8,5.7,15.5,8.4,23.3c1.4,4,4,7.7,3.9,12.2c0,1.2,1.3,1.9,2.6,1.9
			c1.6,0,2.3-0.9,2.7-2.4c4.3-15.1,10.8-29.4,16.4-44c3.9-10.2,7.6-20.4,11.5-30.6c4.1-10.6,8.5-21.1,12.6-31.8
			c4-10.3,7.6-20.8,11.6-31.1c3.4-8.8,6.9-17.5,10.4-26.3c0.7-1.9,2.2-2.3,4-2.3c7,0,14,0,21,0c4-0.1,4.6,2.2,3.4,5.2
			c-3.9,10.2-8.1,20.3-12,30.4c-4.2,10.8-8.2,21.6-12.4,32.4c-4,10.3-8.2,20.6-12.2,30.9c-4,10.5-7.9,21-11.9,31.5
			c-3.8,10-7.7,20.1-11.6,30.1c-3,7.7-6.4,15.3-8.9,23.1c-1.4,4.4-3.4,6.2-8.1,5.9C1393.1,260.2,1387.6,260.5,1382.1,260.5z"/>
		<path class="st1" d="M281,169.9c-9.6,1.9-17.3,7.5-25.1,12.7c-12.1,8.2-25.3,13.6-39.9,14.1c-28.1,1.1-48-18.1-49.3-46.2
			c-1-20.4,6.7-36.7,20.9-50.8c15.5-15.3,34.5-22.4,55.4-26.3c22-4.1,42.8,1.1,63.3,7.3c21.3,6.4,40.9,16.9,58.3,30.9
			s33.4,29.5,45.7,48.3c6,9.2,11.6,18.9,14.5,29.8c-3.1,0-4-2.7-5.4-4.6c-12.3-17-28.3-28.7-48.9-34c-4.6-1.2-9.2-1.2-13.9-1.4
			c-18.4-0.8-35.9,3.4-52.9,10.4C296.1,163.3,288.7,167,281,169.9z"/>
		<path class="st2" d="M116.3,270.8c1.8,2.3,3.8,4.6,5.5,7c6.9,9.8,18.5,12.5,28,18.3c12.3,7.6,22.9,16.6,29.5,29.6
			c11.2,22,0.9,50.5-20.7,61.7c-23.8,12.3-47.5,11.5-71.2-0.9c-21.4-11.2-36-28.2-45.7-50.2c-13-29.4-15.6-60.1-12.7-91.6
			c1-10.6,3.2-21,5.4-31.3c2.3-10.3,7.5-19.5,12.2-28.8c6-12,11.7-24.2,19.7-35.1c0.5-0.6,1.2-1.1,1.8-1.7c1.5,2.6-0.2,4.8-1.2,7
			c-14.6,31.2-7.6,63.7,14.7,89.1c8.6,9.8,18.7,17.8,29.2,25.4C112.5,270.5,114.1,271.6,116.3,270.8z"/>
		<path class="st3" d="M295,367.2c1.7-6.1,2-12.4,1.9-18.7c-0.4-16.1,0.8-32.2,3.4-48.1c3.4-21.1,21.8-35.6,44.8-37.9
			c23.6-2.3,39.5,10.4,50.7,29.3c7.7,13.1,11.8,27.5,11.7,42.7c-0.2,26.4-9.5,49.2-28,68.3c-13.3,13.8-27,27.1-43.4,37.3
			c-28.8,17.9-59.2,31-94,30.8c-11.8-0.1-23.6,0.6-35.3-1.6c1.6-2,3.9-1.5,6-1.5c26.3-0.6,47.1-11.9,62.4-32.7
			c11.2-15.2,15.9-33,18.2-51.5C294.3,378.1,294.5,372.6,295,367.2z"/>
		<path class="st0" d="M1543.9,166.6c0-29.8,0.1-59.5-0.1-89.3c0-4.8,1.5-6.5,6.3-6.3c10.8,0.3,21.7,0.4,32.5,0
			c4.7-0.2,7.4,1.7,10,5c11.1,14.3,22.1,28.6,33.3,42.8c19.4,24.6,39.2,48.9,58.1,73.9c10.2,13.5,21.2,26.3,30.7,40.3
			c0.3,0.4,0.6,0.8,1,1.1c1,1,1.5,3.1,3.3,2.5c1.9-0.6,1-2.5,1-3.9c0-1.8-0.2-3.7-0.2-5.5c0.1-49.9,0.2-99.8,0.1-149.6
			c0-5,1.8-6.5,6.5-6.2c5,0.3,10,0.1,15,0.1c6.2,0,6.6,0.4,6.6,6.4c0,0.7,0,1.3,0,2c0.1,58.5,0.1,117,0.4,175.6c0,4-0.8,5.5-5.1,5.4
			c-12.5-0.3-25-0.1-37.5-0.1c-2.5,0-4.3-0.6-6-2.7c-14.5-18.7-29.2-37.4-43.6-56.1c-21.5-27.8-42.8-55.8-64.4-83.5
			c-5.1-6.5-10.2-13.1-15-19.8c-0.8-1.1-1.6-3-3.4-2.3c-1.7,0.7-1,2.6-1,4c1,45.6,0.2,91.1,0.4,136.7c0,6.5-0.2,13-0.1,19.4
			c0,3.1-0.7,4.5-4.1,4.3c-6.8-0.3-13.7-0.2-20.5,0c-3.1,0.1-4.4-0.7-4.3-4.2C1543.9,226.5,1543.8,196.6,1543.9,166.6
			C1543.8,166.6,1543.8,166.6,1543.9,166.6z"/>
		<path class="st0" d="M1959.2,116.2c-5.6-22.9-20.5-35.8-42.5-40.9c-12.3-2.8-25-3.8-37.7-3.6c-21.4,0.3-42.9,0.1-64.4,0.1
			c-12.4,0-24.7,0.1-37-0.1c-6.9-0.1-8,0.5-8,7.2v88.2c0,28.6,0.1,57.2,0,85.7c0,7.4-2,7.7,7.7,7.7c38.2-0.1,76.3-0.1,114.4,0
			c12.4,0.1,24.4-0.8,36.1-5.6c10.3-4.3,18.6-10.3,24.4-20c8.5-14.3,10.8-30.3,12.5-46.2C1967.4,164.3,1965,140.2,1959.2,116.2z
			 M1937.5,202.5c-0.8,8.2-2.8,16.9-8.6,23.7c-6.2,7.3-14.6,9.8-23.6,11.7c-11.2,2.3-22.4,2.4-33.7,2.4c-23.3,0-46.6,0-69.9,0.3
			c-4.7,0.1-6-1.3-6-5.9c0.3-22.4,0.2-44.9,0.2-67.3c0-22.4,0.1-44.9-0.1-67.3c0-4.3,1.3-5.8,5.7-5.8c28,0.2,55.9,0,83.9,0.3
			c10,0.1,20.2,0.2,29.9,3.3c9.3,3,15.1,10,18.5,18.5c4.9,12.8,4.7,26.6,6.4,40C1942.3,171.9,1939,187.2,1937.5,202.5z"/>
		<path class="st0" d="M590.9,260.3c-13.3,0-26.7,0.3-40-0.1c-9.8-0.3-19.4-2.6-27.9-7.7c-13.2-8-18.7-20.6-19.8-35.4
			c-0.3-3.6-0.1-7.3-0.4-11c-0.2-2.7,1-3.5,3.5-3.4c6.5,0.1,13,0.2,19.5,0c3.2-0.1,4.1,1.4,4,4.2c-0.2,6.5,0.4,12.9,2.5,19.2
			c2.7,7.9,8,13,16.2,14.3c29.3,4.5,58.8,3.9,88-0.5c9-1.4,15.5-6.6,17-17.6c1.2-9.2,2.2-18.4,0.5-27.8c-1.6-8.9-6.9-14.1-15.7-16.2
			c-19.5-4.6-39.5-2.5-59.2-4.2c-10.9-0.9-22-0.8-32.8-2.3c-14.6-2-27.9-7.1-36.3-20.5c-4-6.3-5.5-13.4-5.8-20.8
			c-0.6-13.5-0.5-26.9,7.1-38.9c6.2-9.7,15.6-14.5,26.4-17.1c26.1-6.3,52.7-2.5,79.1-3.4c10.9-0.4,21.8,0.5,32.1,3.9
			c12.2,4,21.9,11,26.5,24c2.3,6.7,2.5,13.3,3.1,20.1c0.2,2.7-0.7,3.9-3.7,3.8c-6.8-0.1-13.7-0.2-20.5,0c-3.2,0.1-4.5-1.1-4.4-4.3
			c0.2-5.5-0.2-10.9-2.9-16s-7.1-8-12.1-9.6c-8.8-2.8-18-3.5-27.1-3.6c-13.5-0.1-27,0-40.5,0.5c-8.6,0.3-17.1,1.8-24.8,6.1
			c-4.6,2.6-7.7,6.6-9,11.4c-2.7,9.6-2.5,19.6,0.1,29.1c2.1,7.6,8,12.3,15.9,14.2c18.7,4.4,37.8,3.1,56.7,3.8
			c13.5,0.5,27,1.3,40.3,3.5c19.2,3.2,33.8,13.7,35.1,37.3c0.5,8.5,0.7,16.9-0.2,25.4c-1.8,16.6-8.9,29-25.7,34.8
			c-8.5,2.9-17,4.6-25.8,4.8C616.9,260.6,603.9,260.3,590.9,260.3z"/>
		<path class="st0" d="M703.7,166.1c0-29.8,0.1-59.5-0.1-89.3c0-3.8,0.7-5.2,4.8-4.9c5.5,0.4,11,0.3,16.5,0c3.7-0.2,4.9,1.1,4.9,4.9
			c-0.2,22.1-0.1,44.2-0.2,66.3c0,6.3,0.5,5.8,6.9,6.7c12.3,1.7,21-3.9,29.8-11.3c22.3-18.6,45.1-36.6,67.7-54.9
			c1-0.8,2.4-1.4,3.2-2.4c7.6-9.3,17.7-10.4,28.7-9.4c4.1,0.4,8.3,0,12.5,0c1.2,0,3-0.6,3.4,1.1c0.4,1.5-1,2.3-2,3.1
			c-7.8,6.5-15.6,12.9-23.3,19.4c-24.7,20.9-49.3,41.9-74,62.9c-5.5,4.6-5.4,4.8,0.3,9.4c20.6,16.5,41,33.2,61.5,49.8
			c15,12.1,30.1,24,45.1,36c2.2,1.8,6.3,4.7,5.7,5.8c-1.5,2.5-5.3,1-8.2,1c-7.7,0.2-15.3-0.2-23,0.2c-4,0.2-6.9-1.2-9.9-3.6
			C828,236,801.9,215,775.8,194c-6.6-5.3-13.3-10.5-19.8-15.9c-2.5-2.1-5.1-2.8-8.2-2.6c-4.3,0.3-8.7,0.2-13-0.1
			c-3.8-0.2-5.3,1.2-5.2,5.2c0.2,24.6,0,49.2,0.3,73.8c0.1,4.8-1.3,6.5-6.1,6.1c-5.1-0.4-10.3-0.4-15.5,0c-3.9,0.3-4.6-1-4.6-4.7
			C703.7,226,703.7,196.1,703.7,166.1z"/>
		<path class="st0" d="M995.5,223.5c0-9.6-0.3-19.3,0.1-28.9c0.3-8.6-2.6-15.6-8-22.1c-17-21-33.7-42.3-50.6-63.4
			c-8.7-10.9-17.4-21.7-26.2-32.6c-0.8-1-2.1-2-1.6-3.4c0.6-1.6,2.3-1,3.5-1c6.8-0.1,13.7,0.3,20.5-0.1c4.8-0.3,7.6,1.7,10.4,5.2
			c20.8,26.5,41.7,52.9,62.6,79.3c2.2,2.8,3.9,2.2,6-0.2c8.5-9.8,15.8-20.5,23.9-30.6c13-16.5,25.9-33.2,38.8-49.8
			c2-2.6,4.2-4.1,7.9-3.9c8,0.4,16,0.1,24,0.2c1.5,0,3.7-1,4.4,1.1c0.6,1.7-0.8,3.2-1.9,4.4c-7.9,7.9-14.1,17.1-21.1,25.7
			c-21.3,26.2-42.8,52.3-63.5,79.1c-1.4,1.8-1.1,3.3-1.1,4.9c-0.1,22.8-0.2,45.6,0,68.3c0,3.9-1,5.2-5,5c-6.5-0.3-13-0.2-19.5,0
			c-2.9,0.1-3.6-0.9-3.5-3.7C995.6,245.8,995.5,234.6,995.5,223.5z"/>
		<path class="st0" d="M575.2,343.4c12.2,0,24.3-0.2,36.5,0.1c6.9,0.1,13.2,2.4,19,6.3c4.2,2.8,6.5,7.1,8.2,11.5
			c2.2,5.9,2.6,12.3,3,18.6c0.1,1.4-0.6,2.8-1.7,3.4c-4.5,2.3-9.4,1.3-14,0.7c-3.6-0.4-3.7-4.2-3.9-7.2
			c-0.9-10.2-3.5-13.5-13.4-16.5c-4.7-1.4-9.5-2-14.3-2.1c-14.8-0.1-29.6,0-44.5-0.1c-6.8,0-13.3,1.7-19.5,3.9
			c-7.5,2.8-10.2,10-10.8,17.2c-1.8,21.2-1.9,42.5-0.2,63.8c0.7,9.5,5.3,14.7,13.9,17.9c11.5,4.2,23.4,2.8,35.1,3.3
			c11.3,0.5,22.6,0.1,33.9-0.6c2.1-0.1,4.3-0.5,6.4-1c7.3-1.8,10.4-7,11.8-13.9c1.3-5.8,1-11.6,1.2-17.4c0.1-3.5-2.1-4-4.9-4
			c-14,0.1-28,0.2-42,0.3c-2.8,0-6.4,0.6-7.4-2.6c-1.2-3.7-1.4-7.9,0.2-11.7c0.8-2,3.2-2.2,5.2-2.2c21.1,0,42.3,0,63.4,0.1
			c4.1,0,6.4,1.8,6.4,6.4c0.2,12.8,0.7,25.6-2.7,38.1c-3.3,12.1-9.4,21.6-25.2,22.4c-26.9,1.4-53.9,1.6-80.8-0.1
			c-12.1-0.8-23.1-5.3-28.1-18c-2-5.1-3.9-10.4-4.5-15.7c-2.3-22.5-3.1-45.1,0-67.6c1.8-12.8,7.9-23.9,20.5-29.1
			c5.5-2.3,11.4-4.5,17.7-4.4C551.6,343.5,563.4,343.4,575.2,343.4L575.2,343.4z"/>
		<path class="st0" d="M768.9,420.3c-1.1-0.3-2.4-0.7-2.2-2.2s1.7-1.2,2.8-1.4c6.6-1.1,12.4-4.1,14.9-10.2
			c4.5-11.1,5.7-22.9,3.2-34.7c-1.4-6.8-3.7-13.4-9.4-18.2c-8.2-6.8-17.9-9.9-28.4-10c-29.3-0.2-58.6-0.1-87.9-0.3
			c-5-0.1-6.2,1.8-6.2,6.4c0.2,20.4,0.1,40.9,0.1,61.3c0,20.6,0.1,41.2-0.1,61.8c0,4.5,1,6.9,6.1,6.3c2.8-0.4,5.7-0.4,8.5,0
			c4.9,0.7,5.9-1.7,5.8-6c-0.2-14-0.1-27.9-0.2-41.9c-0.1-3.4,0.5-5.9,4.8-5.8c11.6,0.3,23.3,0.3,34.9,0.4c11,0.1,22-0.4,32.9,1.2
			c7.5,1.1,14.3,6.7,15.2,14.1c1.4,10.8,1.9,21.8,1.5,32.7c-0.2,3.8,1.3,5.5,5.2,5.2c3.2-0.2,6.4-0.3,9.5,0c4.2,0.4,5.5-1.6,5.5-5.5
			c0-9.1,0.3-18.3,0.4-27.4C785.9,433.8,782.2,423.9,768.9,420.3z M763.6,400.5c-2.4,4.3-6.1,6.8-11.2,8.1
			c-17.4,4.5-35.1,1.9-52.7,2.6c-6.1,0.3-12.3,0.2-18.5,0.4c-2.9,0.1-5-0.7-5-4c-0.1-15.5-0.2-30.9-0.2-46.4c0-3.4,2.6-3.3,5-3.3h34
			c-0.1,0.2-0.1,0.3-0.1,0.3h30.5c9.7,0,17.2,3.3,19.7,13.7C767.4,381.6,768.6,391.3,763.6,400.5z"/>
		<path class="st0" d="M936.9,390.9c-1-9.5-3.3-18.9-8-27.5c-7.3-13.3-20.3-18.7-33.9-19.3c-21-0.9-42.2-3.4-63.1,2.2
			c-10.4,2.8-18.5,8.4-23.7,17.9c-5.3,9.7-6.6,20.4-8,31.1c-2.7,19.9-1.2,39.5,5.6,58.4c5.4,15,16.7,23.4,32.4,24.7
			c10.9,0.9,21.9,0.2,32.9,0.2c0,0,0,0.1,0.1,0.1c9.4,0,18.7-0.1,28,0c9.4,0.1,16.9-4.2,23.5-10.2c9.7-8.9,12.1-21.2,13.9-33.3
			C938.8,420.5,938.5,405.6,936.9,390.9z M917.5,431.4c-1,5.7-1.4,11.4-3.6,16.9c-4.3,10.9-13.7,13.9-23.7,15.1
			c-7.1,0.9-14.1,0.2-21.1,0.3c-7.2,0-14.4,0.6-21.4-0.2c-9.2-1-18.3-3.4-22.9-12.6c-2.8-5.6-4.4-11.8-4.9-18.1
			c-1.1-14.3-1.4-28.6,0.3-42.8c1-8.2,2.2-17,9.5-22.8c3.5-2.8,7.5-4.9,12-5.5c18.2-2.5,36.5-2.3,54.8,0c8.4,1.1,17.2,9.3,18.9,17.7
			C918.8,396.6,920.6,413.9,917.5,431.4z"/>
		<path class="st0" d="M1227.4,371.4c-2-15.4-15.5-27.5-30.5-27.7c-30.8-0.6-61.6-0.3-92.4-0.4c-3.9,0-5.1,1.5-5.1,5.4
			c0.2,20.4,0.1,40.9,0.1,61.3c0.1,1.2,0.1,2.3,0,3.5v58.3c0,6.3,1,7.2,7.3,7.2c2.8,0,5.7-0.2,8.5,0.1c3.7,0.4,4.9-1,4.9-4.7
			c-0.1-14.1,0.1-28.3-0.2-42.4c0-3.8,1.1-4.9,4.8-4.9c14.2,0.1,28.4,0.2,42.5,0c12.6-0.2,25.2,0.7,37.6-3.1
			c11.8-3.7,19.9-12,22.4-23.9C1229.3,390.6,1228.7,381,1227.4,371.4z M1205.3,399c-1.4,4.8-4.8,8.1-9.7,9.8
			c-8,2.7-16.2,3.5-24.6,3.4c-15.5-0.1-30.9,0-46.4,0.1c-3.5,0-4.6-1.1-4.6-4.6c0.2-15.1,0.3-30.2,0.2-45.3c0-3,0.9-4.1,4-4.1
			c10.8,0.1,21.6,0,32.4,0c0.1,0,0.1-0.1,0.1-0.2h27.9c4.5,0,8.7,0.9,13,2.7c4.2,1.8,6.5,5,7.4,8.7
			C1207.5,379.2,1208.2,389.2,1205.3,399z"/>
		<path class="st0" d="M1085.7,398.7c0,16.6,0.5,33.3-0.2,49.8c-0.4,11-6,20.1-15.5,25.6c-4.3,2.5-9.4,4.7-15,4.7
			c-23.1-0.1-46.3,0.4-69.4-0.3c-7.7-0.2-15.7-1.8-22.7-6.2c-8.9-5.6-12.8-14.2-12.9-23.9c-0.5-33.4-0.3-66.8-0.5-100.2
			c0-3.6,1.2-5.2,5-5s7.7,0.1,11.5,0.1c3.6-0.1,4.8,1.6,4.8,5.2c-0.2,29.6-0.2,59.2-0.1,88.8c0,6.7-0.2,13.6,3.6,19.8
			c2.1,3.4,5.1,5.3,8.5,6.3c4.3,1.3,8.8,2.4,13.2,2.5c18.6,0.4,37.3,1.9,55.7-2.3c6.1-1.4,10.6-6.4,11.9-13c0.6-3.1,0.7-6.3,0.7-9.4
			c0-30.9,0-61.8-0.2-92.7c0-3.6,1.1-5.2,4.8-5.1c4.2,0.2,8.3,0.2,12.5,0c3.9-0.3,4.8,1.5,4.8,5c-0.1,16.8,0,33.6,0,50.4
			C1085.9,398.7,1085.8,398.7,1085.7,398.7z"/>
		<path class="st0" d="M1522.9,166.7c0,29.9,0,59.8,0.1,89.7c0,3-0.8,4.2-3.9,4.1c-7-0.1-14-0.2-21,0c-3.7,0.1-4.4-1.5-4.4-4.8
			c0.1-55.7,0.1-111.3,0.2-167c0-4.2,0-8.3-0.1-12.5c-0.1-3.7,1.5-5.5,5.3-5.4c5.8,0.2,11.7,0.2,17.5,0c4.8-0.2,6.4,1.8,6.3,6.5
			C1522.8,107.2,1522.9,137,1522.9,166.7L1522.9,166.7z"/>
		<path class="st4" d="M281,169.9c6.6-5.3,14.6-7.7,22.1-10.9c7.1-3.1,14.6-5.2,22.1-7.4c13.7-4,27.6-4.2,41.3-2.4
			c14.5,1.8,27.4,8.5,38.5,18.3c7.5,6.6,13.6,14.4,19.7,22.3c4.1,8.3,6.5,17.3,9.5,26.1c8.5,24.8,10.2,50.7,10.4,76.7
			c0,2.7-0.5,5.5-1.2,8.3c-2.3-8-4.8-15.8-7.6-23.6c-13.8-37.3-34.7-69.5-68.2-92.2c-11.7-7.9-25.5-11.3-39.1-14.3
			C312.8,167.2,296.9,166.8,281,169.9z"/>
		<path class="st5" d="M116.3,270.8c-0.3,2.4-1.3,3.3-3.6,1.7C92.4,258,73.9,242,63.8,218.3c-5.4-12.9-6.6-26.1-5.3-39.8
			c1-10.9,6-20.5,9.5-30.6c24.3-27.2,50.3-52.2,83.4-68.5c0.4,0.4,0.7,0.8,1.1,1.2c-6.1,7.1-11.9,14.5-18.5,21.2
			c-16.8,17.4-27.5,38-35.1,60.7c-11.6,34.5-6.8,67,11.2,98.1C112.1,264,114.2,267.4,116.3,270.8z"/>
		<path class="st6" d="M295,367.2c2.4,6.2,0.4,12.5-0.4,18.6c-2.2,15.6-6.3,30.7-14.6,44.5c-7,11.6-16.2,20.8-27.9,27.8
			c-14,8.3-29.1,11.8-45.2,11.2c-35.4-4.1-68.1-15.4-98.6-33.5c0.2-0.5,0.3-0.9,0.5-1.4c6.3,2,12.7,3.8,18.9,6
			c16.8,6,34,4.2,51.3,3.5c22.6-1,43.5-7.5,62.8-18.9c21.5-12.8,38.6-30.2,50.1-52.7C292.7,370.4,294,368.8,295,367.2z"/>
	</g>
</g>
</svg>
