<?xml version="1.0" encoding="utf-8"?>
<!-- Generator: Adobe Illustrator 27.0.0, SVG Export Plug-In . SVG Version: 6.00 Build 0)  -->
<svg version="1.1" id="Layer_1" xmlns="http://www.w3.org/2000/svg" xmlns:xlink="http://www.w3.org/1999/xlink" x="0px" y="0px"
	 viewBox="0 0 670.6 667.5" style="enable-background:new 0 0 670.6 667.5;" xml:space="preserve">
<style type="text/css">
	.st0{fill:#13334C;}
	.st1{fill:#F6F6E9;}
	.st2{fill:#FD5F00;}
</style>
<g>
	<path class="st0" d="M656.3,200.5L467.8,12H201.2L12.6,200.5v266.7l188.6,188.6h266.7l188.5-188.5l0,0L656.3,200.5L656.3,200.5z"/>
	<path class="st1" d="M610.5,219l-162-162H219.4l-162,162v229.2l162,162h229.1l162-162l0,0V219L610.5,219z"/>
	<path class="st0" d="M39,456l173.1,173.1h244.8l173-173.1V211.2l-173.1-173H212l-173,173V456z M231.8,85.8h205.9l145.6,145.6v0.1
		l-69.9,29.1L408.9,156.1H261L156.4,260.7v147.9L261,513.2h147.9l104.6-104.6l69.8,28.7L437.7,582.9H231.8L86.3,437.3V231.4
		L231.8,85.8z"/>
	<polygon class="st1" points="582.6,437 437.6,582 339.6,349 348.6,340 	"/>
	<path class="st1" d="M440.4,289.5L377.9,227h-88.4L227,289.5v88.4l62.5,62.5h88.4l62.5-62.5l0,0V289.5L440.4,289.5z"/>
	<path class="st2" d="M402.6,305.3L362.3,265h-57L265,305.3v57l40.3,40.3h57l40.3-40.3l0,0L402.6,305.3L402.6,305.3z"/>
</g>
</svg>
