<?xml version="1.0" encoding="utf-8"?>
<!-- Generator: Adobe Illustrator 27.0.0, SVG Export Plug-In . SVG Version: 6.00 Build 0)  -->
<svg version="1.1" id="Layer_1" xmlns="http://www.w3.org/2000/svg" xmlns:xlink="http://www.w3.org/1999/xlink" x="0px" y="0px"
	 viewBox="0 0 273.5 229.2" style="enable-background:new 0 0 273.5 229.2;" xml:space="preserve">
<style type="text/css">
	.st0{fill:#2E3675;}
</style>
<g>
	<g>
		<path class="st0" d="M241,39.3c-11.5-5.6-23.9-7.8-36.5-8.4c-25.1-1.3-49.5,3.1-73.3,10.9c-2.2,0.7-3.6,0.4-5.4-0.7
			c-8.3-5.1-16.7-10.1-25.2-14.9c-9.1-5.2-18.9,0.4-19,10.8c-0.1,7.5-0.2,15,0,22.5c0.1,2.8-0.8,4.5-3.3,5.9
			c-10.8,6.1-21,13.2-30.5,21.3c-15.5,13.3-29.4,27.9-37.4,47.1c-11.3,27.1-1.2,50.4,26.3,60.7c12.9,4.9,26.3,6.5,40.6,6.2
			c11.1,0.3,22.6-0.9,34.2-3.2c41.6-8.2,79.3-25.1,112.3-51.9c16.7-13.5,30.9-29.1,39-49.5C272.4,72,264.3,50.8,241,39.3z M94.1,57
			c0-8.6,6.9-12.6,14.2-8.2c21.6,12.9,43.2,25.9,64.8,38.9c7.1,4.3,7.2,10.8,0,15c-21.6,12.6-43.2,25.2-64.9,37.6
			c-7.4,4.3-13.9,0.6-13.9-7.9c-0.1-12.6,0-25.3,0-37.9c-0.1-0.1-0.2-0.1-0.2-0.1V57z M123,184.9c-14.8,5.2-29.9,8.9-45.6,8.5
			c-12.4-0.3-24.5-2.7-33.6-12.3c-7.7-8.1-10.1-22.7-5.2-33.8c1.6,14.2,9.4,23,21.6,28.2c13.6,5.8,27.9,6.8,42.5,5.6
			c18.9-1.5,37.1-6.1,54.6-13.4c0.2-0.2,0.8,0.1,2,0.2C147.4,175.1,135.4,180.5,123,184.9z M217.1,91.1c-4,16.3-13.7,29.1-25.2,40.4
			c-18.9,18.5-41.1,31.7-66.6,39.3c-13.5,4-27.1,6.5-41.1,3.8c-14.9-2.8-25.3-13.9-21.6-31.3c2.7-12.7,9.5-23.1,17.7-32.7
			c2.1,1,1.2,2.5,1.2,3.6c0.1,11.5,0,23,0.1,34.5c0,13.1,8.9,18.2,20.2,11.7c31.8-18.4,63.6-36.9,95.4-55.2
			c4.4-2.5,7.4-5.8,7.3-10.9c-0.1-4.9-3.1-8.1-7.3-10.4c-12.1-6.5-24.1-13.2-36.1-19.8c-0.8-0.6-1.7-0.7-1.8-2.3
			c13.9-3.7,28-6.1,42.2-1.1C214.6,65.4,220.4,77.4,217.1,91.1z M236.5,71.9c-7.4-13-19.8-17.8-33.5-20.3
			c-17.4-3.2-34.7-1.3-51.7,2.7c-3,0.7-3.2,0.6-9.1-4c19.7-8.2,39.4-13.2,60.3-11.6c10.4,0.8,20.1,3.8,27.7,11.7
			c6,6.3,7.7,13.9,8.2,22C237.4,72.8,236.9,72.6,236.5,71.9z"/>
	</g>
</g>
</svg>
