<?xml version="1.0" encoding="UTF-8"?>
<svg id="Layer_1" data-name="Layer 1" xmlns="http://www.w3.org/2000/svg" viewBox="0 0 136.26 164.39">
  <defs>
    <style>
      .cls-1 {
        fill: #c41212;
      }

      .cls-2 {
        fill: #f1dfdf;
      }

      .cls-3 {
        fill: #fefefe;
      }
    </style>
  </defs>
  <path class="cls-3" d="M67.98,171.56c-29.32,0-58.63,0-87.95,.03-1.14,0-1.46-.15-1.45-1.4,.04-58.64,.04-117.27,0-175.91,0-1.31,.33-1.49,1.54-1.49,58.57,.03,117.15,.03,175.72,0,1.19,0,1.55,.16,1.54,1.48-.05,58.64-.04,117.27,0,175.91,0,1.23-.29,1.41-1.45,1.41-29.32-.04-58.63-.03-87.95-.03ZM1.98,82.55h.06c0,13.47,.03,26.94-.04,40.41,0,1.39,.51,2.04,1.63,2.68,21.05,12.11,42.08,24.25,63.08,36.43,1.11,.64,1.88,.58,2.95-.04,21.01-12.17,42.04-24.32,63.09-36.42,1.16-.67,1.56-1.38,1.56-2.72-.03-20.61,0-41.23,.02-61.84,0-6.33-.03-12.66,.02-18.99,.01-1.42-.43-2.25-1.73-3C111.61,27,90.63,14.88,69.67,2.73c-1.07-.62-1.83-.71-2.95-.06C46.02,14.68,25.3,26.67,4.52,38.56c-1.91,1.1-2.61,2.27-2.59,4.45,.1,13.18,.05,26.36,.05,39.54Z"/>
  <path class="cls-1" d="M1.98,82.55c0-13.18,.05-26.36-.05-39.54-.02-2.18,.68-3.35,2.59-4.45C25.3,26.67,46.02,14.68,66.72,2.66c1.12-.65,1.88-.56,2.95,.06,20.96,12.15,41.94,24.27,62.95,36.34,1.3,.75,1.74,1.58,1.73,3-.05,6.33-.02,12.66-.02,18.99-.02,20.61-.05,41.23-.02,61.84,0,1.34-.4,2.05-1.56,2.72-21.05,12.1-42.08,24.25-63.09,36.42-1.08,.62-1.84,.68-2.95,.04-21.01-12.18-42.04-24.32-63.08-36.43-1.11-.64-1.63-1.29-1.63-2.68,.07-13.47,.04-26.94,.04-40.41h-.06Zm79.17-8.36c.77-2.03,1.71-3.62,2.64-5.22,4.02-6.91,9.47-11.74,17.89-12.17,.97-.05,1.41-.29,1.39-1.42-.07-4.53-.07-9.06,0-13.59,.02-1.18-.45-1.32-1.43-1.26-12.21,.67-22.36,5.22-29.52,15.5-4.37,6.27-7.76,13.04-10.26,20.25-2.59,7.45-5.51,14.75-9.93,21.34-4.1,6.11-9.55,10.07-17.21,10.22-.93,.02-1.15,.4-1.15,1.27,.03,4.65,.04,9.29,0,13.94,0,.97,.33,1.19,1.21,1.1,2.19-.25,4.41-.31,6.58-.68,8.41-1.41,15.62-5.01,21.03-11.81,4.45-5.59,7.93-11.74,10.73-18.3,.45-1.06,.44-2.9,2.16-2.92,5.69-.08,11.38-.15,17.07,.08,1.52,.06,1.62-.31,1.61-1.47-.02-4.41-.06-8.83,.03-13.24,.03-1.31-.32-1.67-1.63-1.64-3.64,.09-7.29,.03-11.2,.03Z"/>
  <path class="cls-2" d="M81.15,74.19c3.91,0,7.55,.06,11.2-.03,1.31-.03,1.66,.33,1.63,1.64-.09,4.41-.05,8.83-.03,13.24,0,1.17-.09,1.54-1.61,1.47-5.68-.23-11.38-.16-17.07-.08-1.71,.02-1.7,1.86-2.16,2.92-2.8,6.57-6.28,12.71-10.73,18.3-5.4,6.8-12.62,10.39-21.03,11.81-2.17,.36-4.39,.43-6.58,.68-.88,.1-1.22-.13-1.21-1.1,.05-4.64,.04-9.29,0-13.94,0-.87,.21-1.25,1.15-1.27,7.66-.15,13.11-4.1,17.21-10.22,4.42-6.59,7.35-13.89,9.93-21.34,2.5-7.21,5.89-13.98,10.26-20.25,7.17-10.28,17.32-14.83,29.52-15.5,.98-.05,1.45,.08,1.43,1.26-.07,4.53-.08,9.06,0,13.59,.02,1.12-.42,1.37-1.39,1.42-8.42,.43-13.87,5.26-17.89,12.17-.93,1.6-1.87,3.19-2.64,5.22Z"/>
</svg>