<?xml version="1.0" encoding="utf-8"?>
<!-- Generator: Adobe Illustrator 27.0.0, SVG Export Plug-In . SVG Version: 6.00 Build 0)  -->
<svg version="1.1" id="Layer_1" xmlns="http://www.w3.org/2000/svg" xmlns:xlink="http://www.w3.org/1999/xlink" x="0px" y="0px"
	 viewBox="0 0 2903 667.5" style="enable-background:new 0 0 2903 667.5;" xml:space="preserve">
<style type="text/css">
	.st0{fill:#005792;}
	.st1{fill:#FD5F00;}
	.st2{fill:#F6F6E9;}
	.st3{fill:#13334C;}
	.st4{fill:#FFFFFF;}
	.st5{fill:#13334C;}
</style>
<g>
	<path class="st5" d="M783,227.3l78.8-84.3h214.6l66,69.9v64.3h-89.3v-36.1l-17.7-15H900.5l-29.4,36.1v149.8l33.3,38.3h127
		l27.7-28.3v-33.8h-82.6v-71h169.2v212.4h-54.9l-17.7-36.1h-5.5l-23.8,36.1H856.7L783,454.7V227.3z"/>
	<path class="st5" d="M1198.4,529.5l140.3-387.1h123.7l133.1,387.1h-97.1l-29.4-87.1h-150.3l-29.4,87.1H1198.4z M1444.6,368.7
		L1396.4,230L1347,368.7H1444.6z"/>
	<path class="st5" d="M1643.8,142.4h138.1l77.1,257.9l74.9-257.9h144.2v387.1h-90.4V252.2l-88.2,277.3h-82.1l-89.3-276.8v276.8
		h-84.3V142.4z"/>
	<path class="st5" d="M2155.7,529.5v-76l185.8-231.3h-176.4v-79.3h292.3v74.3l-185.2,231.8h181.9v80.4H2155.7z"/>
	<path class="st5" d="M2532.9,224.5l82.6-82.1h194.1l81,88.2v219.6l-80.4,79.3h-202.4l-74.9-78.8V224.5z M2648.8,451.9H2768
		l37.7-40.5V265.5l-38.3-41h-115.9l-31.6,37.7v154.2L2648.8,451.9z"/>
</g>
<g>
	<path class="st3" d="M656.3,200.5L467.8,12H201.2L12.6,200.5v266.7l188.6,188.6h266.7l188.5-188.5h0L656.3,200.5L656.3,200.5z"/>
	<path class="st2" d="M610.5,219l-162-162H219.4l-162,162v229.2l162,162h229.1l162-162h0L610.5,219L610.5,219z"/>
	<path class="st3" d="M39,456l173.1,173.1l244.8,0L629.9,456l0-244.8L456.8,38.2l-244.8,0L39,211.2L39,456z M231.8,85.8l205.9,0
		l145.6,145.6l0,0.1l-69.9,29.1L408.9,156.1l-147.9,0L156.4,260.7l0,147.9L261,513.2l147.9,0l104.6-104.6l69.8,28.7L437.7,582.9
		l-205.9,0L86.3,437.3l0-205.9L231.8,85.8z"/>
	<polygon class="st2" points="582.6,437 437.6,582 339.6,349 348.6,340 	"/>
	<path class="st2" d="M440.4,289.5L377.9,227h-88.4l-62.5,62.5v88.4l62.5,62.5h88.4l62.5-62.5h0L440.4,289.5L440.4,289.5z"/>
	<path class="st1" d="M402.6,305.3L362.3,265h-57L265,305.3v57l40.3,40.3h57l40.3-40.3h0L402.6,305.3L402.6,305.3z"/>
</g>
</svg>
