<?xml version="1.0" encoding="UTF-8"?>
<svg id="shields" xmlns="http://www.w3.org/2000/svg" viewBox="0 0 257.99 293.99">
  <defs>
    <style>
      .cls-1 {
        fill: #fff;
      }

      .cls-2 {
        fill: #f16529;
      }

      .cls-3 {
        fill: #ebebeb;
      }

      .cls-4 {
        fill: #e44d26;
      }
    </style>
  </defs>
  <g>
    <polygon class="cls-4" points="130.36 281.14 34.77 254.6 13.46 15.65 247.55 15.65 226.22 254.56 130.36 281.14"/>
    <polygon class="cls-2" points="207.97 239.35 226.19 35.19 130.51 35.19 130.51 260.82 207.97 239.35"/>
  </g>
  <polygon class="cls-1" points="130.6 93.8 201.28 93.8 203.91 64.5 130.6 64.5 130.49 64.5 57.11 64.5 65.01 153.12 130.49 153.12 130.6 153.12 166.58 153.12 163.18 191.12 130.49 199.95 130.49 199.95 130.47 199.96 97.83 191.14 95.74 167.77 66.33 167.77 70.43 213.78 130.46 230.45 130.6 230.41 130.6 230.41 190.57 213.78 198.61 123.81 130.6 123.81 130.49 123.81 91.82 123.81 89.14 93.8 130.49 93.8 130.6 93.8"/>
  <g>
    <polygon class="cls-3" points="130.51 199.94 130.49 199.95 130.49 199.95 130.47 199.96 97.83 191.14 95.74 167.77 66.33 167.77 70.43 213.78 130.46 230.45 130.51 230.44 130.51 199.94"/>
    <polygon class="cls-3" points="130.51 153.12 130.51 123.81 130.49 123.81 91.82 123.81 89.14 93.8 130.49 93.8 130.51 93.8 130.51 64.5 130.49 64.5 57.11 64.5 65.01 153.12 130.49 153.12 130.51 153.12"/>
  </g>
</svg>