<?xml version="1.0" encoding="utf-8"?>
<!-- Generator: Adobe Illustrator 27.0.0, SVG Export Plug-In . SVG Version: 6.00 Build 0)  -->
<svg version="1.1" id="Layer_1" xmlns="http://www.w3.org/2000/svg" xmlns:xlink="http://www.w3.org/1999/xlink" x="0px" y="0px"
	 viewBox="0 0 972.6 219" style="enable-background:new 0 0 972.6 219;" xml:space="preserve">
<style type="text/css">
	.st0{fill:#2E3675;}
</style>
<g>
	<g>
		<path class="st0" d="M959.2,141.2c-1.5-1.4-2.6-1.4-4.1,0.1c-2.8,2.8-5.7,5.7-8.9,8c-2.8,2-5.5,6-9.5,3.3
			c-4.1-2.8-1.8-7.1-0.8-10.6c5.1-16.8,10.5-33.5,15.6-50.2c2.2-7,5.4-13.9,5.6-21.5c0.2-6.6-3-9.8-9.6-9.9c-4.2-0.1-8.1,1-12,2.6
			c-15.7,6.5-28.5,16.9-41.2,27.7c-3.9,3.3-7.6,6.8-12.4,11.1c9-31.1,17.6-60.8,26.2-90.6c-3.3-0.3-6.2-0.7-8.9,0.3
			c-9.8,3.5-19.9,5.4-30.2,5.9c-4.2,0.2-5.6,1.7-5.2,5.8h7.9c12.8,0,14.6,2.5,10.9,14.9c-5.7,19.2-11.1,38.5-16.7,57.7
			c-2.7,9.3-4.1,19.4-8.7,27.8c-7.7,14.1-19.5,25-35.1,30.3c-14,4.8-28.7-5.7-30.2-20.5c-1.7-16.1,3.2-30.4,11.7-43.7
			c6.1-9.4,13.8-17.1,24.7-20.8c4.4-1.5,8.9-2.1,13.3-0.8c3.2,0.9,5.3,2.8,3,6.6c-0.9,1.4-1.6,3-2.2,4.5c-2,4.8-1,10.2,2.3,12.8
			c3.6,2.8,9.9,2.4,14-0.8c7.2-5.7,7-17.8-0.7-24c-10.1-8.1-21.8-8.1-33.6-5.4c-30.9,7.1-54.2,36.6-54.4,68.4c0,1.8,0.1,3.4-1.7,4.8
			c-10.5,8.2-21.6,15.5-34.5,19.4c-14.9,4.6-26.4-4.5-25.8-20.1c0-2,0.4-3.9,0.7-5.9c0.8-6.5,1.4-6.9,8-7.4
			c14.8-1.2,29-4.8,42.2-11.8c9.2-4.9,17.5-11,21.3-21.4c4.5-12.4-1.5-23.8-13.9-26.6c-7.4-1.7-14.9-1.4-22.2,0.4
			c-30.3,7.4-55.8,39.1-56.5,70.2c-0.1,2.4-0.3,4.6-2.1,6.4c-3.3,3.3-6.5,6.7-9.9,9.9c-3.4,3.1-7.4,6-12,3.3
			c-4.7-2.7-3.3-7.9-2.3-11.8c5.9-23.1,12.2-46,18.3-69c0.7-2.9,2.1-3.6,4.9-3.5c4,0.2,8-0.3,12,0.1c5,0.5,4.5-3.4,4.7-5.9
			c0.2-3-2.7-1.5-4.1-1.6c-3.2-0.2-6.3-0.2-9.5,0c-3.5,0.2-4.8-0.5-3.7-4.4c2.6-9.3,4.7-18.6,7-28c0.3-1.3,2.1-3.2-0.1-3.8
			c-1.9-0.5-4.4-1.1-6,1.1c-0.7,1-1,2.1-1.6,3.1c-8.6,15-18.9,28.1-36.8,32.8c-2.4,0.7-4.3,0.8-6.7,0c-5.5-1.9-11-1.3-15.8,1.9
			c-6.8,4.5-9.7,16.3,0.9,23.3c4.5,3,6.9,6.7,5.2,12.2c-4,13-10.8,24.7-17.6,38.1c-2.1-10.8-3.9-20.2-5.8-29.5
			c-2.7-13.2-5.2-26.5-9.6-39.4c-1.8-5-4.6-6.6-9.7-5.9c-10.1,1.3-19.9,4.6-30.4,2.2c-5.1-1.2-10.7-0.2-16-0.2
			c-10.9,0-10.9,0-13.8,10.4c0,0.1-0.5,0.2-0.8,0.3c-6.7-13.8-14.1-17-29.4-12.9c-5.7,1.5-10.9,4.1-15.5,7.6
			c-20.9,15.7-33.6,36.5-37.3,62.4c-0.9,6.1-3.4,10.6-7.6,14.6c-1.4,1.4-3,2.2-4.9,1.4c-2.2-1-2.5-3-2.3-5.1
			c0.1-1.3,0.5-2.6,0.8-3.9c9.2-34.7,18.5-69.4,27.7-104.1c2.2-8.2,4.3-16.4,6.5-25.1c-15.9,3.2-31.1,5.3-46.5,6.5
			c-1.9,0.1-4,0.1-3.8,3.2s2.3,2.3,4,2.4c6.5,0.5,8.4,3.1,6.8,9.6c-3.9,15.1-7.9,30.2-11.8,45.3c-1.4,5.3-2.9,10.6-4.3,15.9
			c-1.1-2-1.2-3.9-1.3-5.8c-1.1-16.5-9.4-25.3-25.3-26.4c-9-0.6-16.6,3.3-23.6,8.8c-5,4-8.8,9.2-14.1,13.2
			c1.8-6.3,3.6-12.5,5.5-19.2c-15.8,2.4-31,4.7-46.3,5.6c-1.8,0.1-3.1,0.3-3.2,2.7c-0.1,2.3,1.1,2.5,3,2.7c8.1,1,10,3.6,8,11.7
			c-5.3,21-10.6,42-16.3,63c-3.9,15-7.1,30.1-11.9,44.8c-1.6,4.9-4.1,8.8-9.9,9.1c-2.3,0.1-4.1,0.2-4,3.5c0.2,3.3,2.4,2.6,4.2,2.6
			c17.7,0.1,35.3,0.1,53,0c1.8,0,4.6,1.3,4.8-2.5c0.3-3.9-2.7-3.2-4.7-3.5c-7.8-1.2-10.6-4.5-8.9-12.3c1.9-8.7,4.5-17.2,6.9-25.8
			c0.5-1.7,1.1-2.9,3.4-1.5c9.6,5.6,19.8,5,29.9,1.9c14.2-4.3,24-14.4,32.4-26.1c2.6-3.6,4.8-7.3,7.2-11c-0.2,6.2-1.5,12-2.8,17.9
			c-2.1,9.9,3.1,19.4,12,20.9c7.5,1.2,14.8,0.5,21.6-3.8c6-3.8,10.5-9,15.1-14c0.4,0.2,0.6,0.3,0.7,0.4c0.3,0.7,0.7,1.4,1,2.2
			c3.2,8.8,9.6,14,18.7,15.2c11,1.5,21.1-1,29.8-8.4c5.6-4.8,9.7-10.7,14.8-17.9c-0.4,5.2-0.8,8.8,0.1,12.6
			c-0.1,8,3.6,12.5,11.5,13.7c4.4,0.7,9,0.7,13.4-0.5c13.9-3.8,21.3-14.7,28.5-25.8c1.7-2.7-1.1-3-2.2-4.1c-1.6-1.7-2.6-0.4-3.5,0.9
			c-2.6,3.7-5,7.5-8.6,10.3c-1.8,1.4-3.8,2.5-5.9,1.1c-1.9-1.3-2.6-3.5-2-5.8c6.3-22.5,12.6-44.9,18.9-67.4c0.9-3.4,2.4-2.4,4-0.6
			c2.4,2.7,3.5,6,4.4,9.4c6,21.7,9.6,43.8,13.3,65.9c1.2,7.2,2.4,14.5,2.1,21.8c-0.3,7.3-4.7,12.5-10.4,16.1
			c-4.6,2.9-8.4-1.3-12.1-3.5c-4.1-2.5-8.3-4.1-13.2-3.7c-7,0.6-12.9,5.5-13.6,11.2c-1.1,8.2,1.8,13.4,9.3,16
			c4.7,1.6,9.7,2.1,14.7,1.1c13.2-2.5,22.8-10.6,31.1-20.2c23.4-27.1,40.9-58,55.4-90.6c3.3-7.2,5.8-14.8,6.2-22.9
			c0.1-2.4-2.3-5.6-0.3-7c1.8-1.3,5.1-0.5,7.7-0.6h0.5c4.2-0.7,5.1,0.9,4,4.9c-5.1,18.2-10.1,36.4-14.9,54.6
			c-2.2,8.6-5.7,17-5.5,26.1c0.1,8.4,5.6,13.6,14,13.5c4.6-0.1,8.8-1.5,12.7-3.9c6.6-4,12.2-9.1,17.3-14.9c2.3-2.5,2.9-2.5,3.9,0.9
			c3.2,10.4,10.6,16.2,21.3,17.7c4.9,0.7,9.9,0.6,14.9-0.1c16.7-2.4,30.7-10.5,43.7-20.6c2.7-2.1,3.5-1.6,4.8,1.2
			c5,10.7,13.3,17.3,25,19.2c16.2,2.5,30.6-1.6,43.3-12c2.8-2.2,5.4-4.7,8.3-7.2c0.1,0.8,0.3,1.1,0.2,1.4c-1,3.8-2.1,7.7-3.2,11.5
			c-2,6.8-2,6.8,4.8,6.7c2.3,0,4.7-0.1,7,0.2c3.3,0.5,5-0.6,5.9-4.1c2.2-8.4,4.7-16.6,7.2-24.9c3.1-10.5,5.3-21.4,13.2-29.7
			c10-10.5,21.1-19.8,33.5-27.4c3.1-1.9,6.3-3.9,10.1-4c4.9-0.2,7.5,2.6,6.1,7.5c-2.7,9.6-5.6,19-8.5,28.5
			c-4.1,13.5-8.4,26.9-12.4,40.4c-2.7,9.3,1.2,14,11,13.7c4-0.1,7.6-1.4,11-3.1c9-4.5,15.9-11.4,22.5-18.7
			C959.8,143.5,960.8,142.6,959.2,141.2z M712.1,111.5c4.9-14.2,11.5-27.3,24-36.4c5.4-4.1,11.7-6.3,17.1-6.4
			c8.9,0,12.3,3.8,11.7,11.3c-0.8,8.4-5.3,14.6-11.5,19.7c-11,9.2-24,13.2-38,14.5C713.7,114.4,710.8,115.2,712.1,111.5z
			 M359.9,130.6c-3.3,7.7-6.9,15.1-12.8,21.1c-1.7,1.8-3.7,3.4-5.8,4.6c-3.3,1.8-6.8,2.6-10.3,0.2c-3.5-2.5-3.2-6.2-2.4-9.5
			c4.2-16.2,8.1-32.5,14.2-48.1c2.4-6,5.3-11.9,10-16.4c3.4-3.2,7.3-6.4,12.3-4.5c5.5,2,6.3,7.1,6.3,13.7
			C370.1,104.5,365.4,117.6,359.9,130.6z M520.5,82.8c-1.3,12.4-5.1,24.1-9.5,35.8c-3,8-6.7,15.6-12.1,22.2
			c-2.7,3.4-5.8,6.5-10.2,7.5c-5.6,1.3-9.4-1.3-10.3-7c-1.4-8.3,0.7-16.1,3.2-23.8c4.2-13,9.9-25.2,17.8-36.4
			c1.3-1.9,2.8-3.7,4.5-5.3c3.1-3,6.6-5.5,11.1-3.6C519.6,74,520.8,78.1,520.5,82.8z"/>
		<path class="st0" d="M250.6,36.3c-11.5-5.6-23.9-7.8-36.5-8.4c-25.1-1.3-49.5,3.1-73.3,10.9c-2.2,0.7-3.6,0.4-5.4-0.7
			c-8.3-5.1-16.7-10.1-25.2-14.9c-9.1-5.2-18.9,0.4-19,10.8c-0.1,7.5-0.2,15,0,22.5c0.1,2.8-0.8,4.5-3.3,5.9
			c-10.8,6.1-21,13.2-30.5,21.3C41.9,97,28,111.6,20,130.8c-11.3,27.1-1.2,50.4,26.3,60.7c12.9,4.9,26.3,6.5,40.6,6.2
			c11.1,0.3,22.6-0.9,34.2-3.2c41.6-8.2,79.3-25.1,112.3-51.9c16.7-13.5,30.9-29.1,39-49.5C282,69,273.9,47.8,250.6,36.3z M103.7,54
			c0-8.6,6.9-12.6,14.2-8.2c21.6,12.9,43.2,25.9,64.8,38.9c7.1,4.3,7.2,10.8,0,15c-21.6,12.6-43.2,25.2-64.9,37.6
			c-7.4,4.3-13.9,0.6-13.9-7.9c-0.1-12.6,0-25.3,0-37.9c-0.1-0.1-0.2-0.1-0.2-0.1V54z M132.6,181.9c-14.8,5.2-29.9,8.9-45.6,8.5
			c-12.4-0.3-24.5-2.7-33.6-12.3c-7.7-8.1-10.1-22.7-5.2-33.8c1.6,14.2,9.4,23,21.6,28.2c13.6,5.8,27.9,6.8,42.5,5.6
			c18.9-1.5,37.1-6.1,54.6-13.4c0.2-0.2,0.8,0.1,2,0.2C157,172.1,145,177.5,132.6,181.9z M226.7,88.1c-4,16.3-13.7,29.1-25.2,40.4
			c-18.9,18.5-41.1,31.7-66.6,39.3c-13.5,4-27.1,6.5-41.1,3.8c-14.9-2.8-25.3-13.9-21.6-31.3c2.7-12.7,9.5-23.1,17.7-32.7
			c2.1,1,1.2,2.5,1.2,3.6c0.1,11.5,0,23,0.1,34.5c0,13.1,8.9,18.2,20.2,11.7c31.8-18.4,63.6-36.9,95.4-55.2
			c4.4-2.5,7.4-5.8,7.3-10.9c-0.1-4.9-3.1-8.1-7.3-10.4c-12.1-6.5-24.1-13.2-36.1-19.8c-0.8-0.6-1.7-0.7-1.8-2.3
			c13.9-3.7,28-6.1,42.2-1.1C224.2,62.4,230,74.4,226.7,88.1z M246.1,68.9c-7.4-13-19.8-17.8-33.5-20.3c-17.4-3.2-34.7-1.3-51.7,2.7
			c-3,0.7-3.2,0.6-9.1-4c19.7-8.2,39.4-13.2,60.3-11.6c10.4,0.8,20.1,3.8,27.7,11.7c6,6.3,7.7,13.9,8.2,22
			C247,69.8,246.5,69.6,246.1,68.9z"/>
	</g>
</g>
</svg>
